<mxfile host="Electron" modified="2023-08-06T06:33:26.407Z" agent="Mozilla/5.0 (Macintosh; Intel Mac OS X 10_15_7) AppleWebKit/537.36 (KHTML, like Gecko) draw.io/21.6.1 Chrome/112.0.5615.204 Electron/24.6.1 Safari/537.36" etag="VNpKtc308GAjm45uXd4d" version="21.6.1" type="device">
  <diagram name="Page-1" id="xqgEY28AWKpx-P8v2Bkd">
    <mxGraphModel dx="1180" dy="579" grid="1" gridSize="10" guides="1" tooltips="1" connect="1" arrows="1" fold="1" page="1" pageScale="1" pageWidth="1654" pageHeight="1169" math="0" shadow="0">
      <root>
        <mxCell id="0" />
        <mxCell id="1" parent="0" />
        <mxCell id="p5BMuvaNEtFF0kDmMsm_-1" value="Region" style="points=[[0,0],[0.25,0],[0.5,0],[0.75,0],[1,0],[1,0.25],[1,0.5],[1,0.75],[1,1],[0.75,1],[0.5,1],[0.25,1],[0,1],[0,0.75],[0,0.5],[0,0.25]];outlineConnect=0;gradientColor=none;html=1;whiteSpace=wrap;fontSize=12;fontStyle=0;container=1;pointerEvents=0;collapsible=0;recursiveResize=0;shape=mxgraph.aws4.group;grIcon=mxgraph.aws4.group_region;strokeColor=#147EBA;fillColor=none;verticalAlign=top;align=left;spacingLeft=30;fontColor=#147EBA;dashed=1;" vertex="1" parent="1">
          <mxGeometry x="270" y="210" width="788" height="590" as="geometry" />
        </mxCell>
        <mxCell id="p5BMuvaNEtFF0kDmMsm_-2" value="Availability Zone" style="fillColor=none;strokeColor=#147EBA;dashed=1;verticalAlign=top;fontStyle=0;fontColor=#147EBA;whiteSpace=wrap;html=1;" vertex="1" parent="p5BMuvaNEtFF0kDmMsm_-1">
          <mxGeometry x="40" y="80" width="280" height="500" as="geometry" />
        </mxCell>
        <mxCell id="p5BMuvaNEtFF0kDmMsm_-4" value="Public subnet" style="points=[[0,0],[0.25,0],[0.5,0],[0.75,0],[1,0],[1,0.25],[1,0.5],[1,0.75],[1,1],[0.75,1],[0.5,1],[0.25,1],[0,1],[0,0.75],[0,0.5],[0,0.25]];outlineConnect=0;gradientColor=none;html=1;whiteSpace=wrap;fontSize=12;fontStyle=0;container=1;pointerEvents=0;collapsible=0;recursiveResize=0;shape=mxgraph.aws4.group;grIcon=mxgraph.aws4.group_security_group;grStroke=0;strokeColor=#248814;fillColor=#E9F3E6;verticalAlign=top;align=left;spacingLeft=30;fontColor=#248814;dashed=0;" vertex="1" parent="p5BMuvaNEtFF0kDmMsm_-1">
          <mxGeometry x="60" y="130" width="230" height="130" as="geometry" />
        </mxCell>
        <mxCell id="p5BMuvaNEtFF0kDmMsm_-24" value="bastion" style="sketch=0;points=[[0,0,0],[0.25,0,0],[0.5,0,0],[0.75,0,0],[1,0,0],[0,1,0],[0.25,1,0],[0.5,1,0],[0.75,1,0],[1,1,0],[0,0.25,0],[0,0.5,0],[0,0.75,0],[1,0.25,0],[1,0.5,0],[1,0.75,0]];outlineConnect=0;fontColor=#232F3E;gradientColor=#F78E04;gradientDirection=north;fillColor=#D05C17;strokeColor=#ffffff;dashed=0;verticalLabelPosition=bottom;verticalAlign=top;align=center;html=1;fontSize=12;fontStyle=0;aspect=fixed;shape=mxgraph.aws4.resourceIcon;resIcon=mxgraph.aws4.ec2;" vertex="1" parent="p5BMuvaNEtFF0kDmMsm_-4">
          <mxGeometry x="80" y="41" width="48" height="48" as="geometry" />
        </mxCell>
        <mxCell id="p5BMuvaNEtFF0kDmMsm_-6" value="Private subnet" style="points=[[0,0],[0.25,0],[0.5,0],[0.75,0],[1,0],[1,0.25],[1,0.5],[1,0.75],[1,1],[0.75,1],[0.5,1],[0.25,1],[0,1],[0,0.75],[0,0.5],[0,0.25]];outlineConnect=0;gradientColor=none;html=1;whiteSpace=wrap;fontSize=12;fontStyle=0;container=1;pointerEvents=0;collapsible=0;recursiveResize=0;shape=mxgraph.aws4.group;grIcon=mxgraph.aws4.group_security_group;grStroke=0;strokeColor=#147EBA;fillColor=#E6F2F8;verticalAlign=top;align=left;spacingLeft=30;fontColor=#147EBA;dashed=0;" vertex="1" parent="p5BMuvaNEtFF0kDmMsm_-1">
          <mxGeometry x="60" y="290" width="230" height="260" as="geometry" />
        </mxCell>
        <mxCell id="p5BMuvaNEtFF0kDmMsm_-7" value="Availability Zone" style="fillColor=none;strokeColor=#147EBA;dashed=1;verticalAlign=top;fontStyle=0;fontColor=#147EBA;whiteSpace=wrap;html=1;" vertex="1" parent="p5BMuvaNEtFF0kDmMsm_-1">
          <mxGeometry x="407" y="80" width="283" height="500" as="geometry" />
        </mxCell>
        <mxCell id="p5BMuvaNEtFF0kDmMsm_-8" value="Public subnet" style="points=[[0,0],[0.25,0],[0.5,0],[0.75,0],[1,0],[1,0.25],[1,0.5],[1,0.75],[1,1],[0.75,1],[0.5,1],[0.25,1],[0,1],[0,0.75],[0,0.5],[0,0.25]];outlineConnect=0;gradientColor=none;html=1;whiteSpace=wrap;fontSize=12;fontStyle=0;container=1;pointerEvents=0;collapsible=0;recursiveResize=0;shape=mxgraph.aws4.group;grIcon=mxgraph.aws4.group_security_group;grStroke=0;strokeColor=#248814;fillColor=#E9F3E6;verticalAlign=top;align=left;spacingLeft=30;fontColor=#248814;dashed=0;" vertex="1" parent="p5BMuvaNEtFF0kDmMsm_-1">
          <mxGeometry x="427" y="130" width="230" height="130" as="geometry" />
        </mxCell>
        <mxCell id="p5BMuvaNEtFF0kDmMsm_-9" value="Private subnet" style="points=[[0,0],[0.25,0],[0.5,0],[0.75,0],[1,0],[1,0.25],[1,0.5],[1,0.75],[1,1],[0.75,1],[0.5,1],[0.25,1],[0,1],[0,0.75],[0,0.5],[0,0.25]];outlineConnect=0;gradientColor=none;html=1;whiteSpace=wrap;fontSize=12;fontStyle=0;container=1;pointerEvents=0;collapsible=0;recursiveResize=0;shape=mxgraph.aws4.group;grIcon=mxgraph.aws4.group_security_group;grStroke=0;strokeColor=#147EBA;fillColor=#E6F2F8;verticalAlign=top;align=left;spacingLeft=30;fontColor=#147EBA;dashed=0;" vertex="1" parent="p5BMuvaNEtFF0kDmMsm_-1">
          <mxGeometry x="427" y="290" width="230" height="250" as="geometry" />
        </mxCell>
        <mxCell id="p5BMuvaNEtFF0kDmMsm_-10" value="Auto Scaling group" style="points=[[0,0],[0.25,0],[0.5,0],[0.75,0],[1,0],[1,0.25],[1,0.5],[1,0.75],[1,1],[0.75,1],[0.5,1],[0.25,1],[0,1],[0,0.75],[0,0.5],[0,0.25]];outlineConnect=0;gradientColor=none;html=1;whiteSpace=wrap;fontSize=12;fontStyle=0;container=1;pointerEvents=0;collapsible=0;recursiveResize=0;shape=mxgraph.aws4.groupCenter;grIcon=mxgraph.aws4.group_auto_scaling_group;grStroke=1;strokeColor=#D86613;fillColor=none;verticalAlign=top;align=center;fontColor=#D86613;dashed=1;spacingTop=25;" vertex="1" parent="p5BMuvaNEtFF0kDmMsm_-1">
          <mxGeometry x="77" y="330" width="580" height="120" as="geometry" />
        </mxCell>
        <mxCell id="p5BMuvaNEtFF0kDmMsm_-23" value="Security group" style="fillColor=none;strokeColor=#DD3522;verticalAlign=top;fontStyle=0;fontColor=#DD3522;whiteSpace=wrap;html=1;spacingBottom=1;spacingLeft=3;spacingRight=-1;spacingTop=-20;" vertex="1" parent="p5BMuvaNEtFF0kDmMsm_-10">
          <mxGeometry x="408" y="40" width="90" height="70" as="geometry" />
        </mxCell>
        <mxCell id="p5BMuvaNEtFF0kDmMsm_-11" value="ec2" style="sketch=0;points=[[0,0,0],[0.25,0,0],[0.5,0,0],[0.75,0,0],[1,0,0],[0,1,0],[0.25,1,0],[0.5,1,0],[0.75,1,0],[1,1,0],[0,0.25,0],[0,0.5,0],[0,0.75,0],[1,0.25,0],[1,0.5,0],[1,0.75,0]];outlineConnect=0;fontColor=#232F3E;gradientColor=#F78E04;gradientDirection=north;fillColor=#D05C17;strokeColor=#ffffff;dashed=0;verticalLabelPosition=bottom;verticalAlign=top;align=center;html=1;fontSize=12;fontStyle=0;aspect=fixed;shape=mxgraph.aws4.resourceIcon;resIcon=mxgraph.aws4.ec2;" vertex="1" parent="p5BMuvaNEtFF0kDmMsm_-1">
          <mxGeometry x="160" y="380" width="40" height="40" as="geometry" />
        </mxCell>
        <mxCell id="p5BMuvaNEtFF0kDmMsm_-35" style="edgeStyle=orthogonalEdgeStyle;rounded=0;orthogonalLoop=1;jettySize=auto;html=1;" edge="1" parent="p5BMuvaNEtFF0kDmMsm_-1" source="p5BMuvaNEtFF0kDmMsm_-21" target="p5BMuvaNEtFF0kDmMsm_-33">
          <mxGeometry relative="1" as="geometry" />
        </mxCell>
        <mxCell id="p5BMuvaNEtFF0kDmMsm_-21" value="ec2" style="sketch=0;points=[[0,0,0],[0.25,0,0],[0.5,0,0],[0.75,0,0],[1,0,0],[0,1,0],[0.25,1,0],[0.5,1,0],[0.75,1,0],[1,1,0],[0,0.25,0],[0,0.5,0],[0,0.75,0],[1,0.25,0],[1,0.5,0],[1,0.75,0]];outlineConnect=0;fontColor=#232F3E;gradientColor=#F78E04;gradientDirection=north;fillColor=#D05C17;strokeColor=#ffffff;dashed=0;verticalLabelPosition=bottom;verticalAlign=top;align=center;html=1;fontSize=12;fontStyle=0;aspect=fixed;shape=mxgraph.aws4.resourceIcon;resIcon=mxgraph.aws4.ec2;" vertex="1" parent="p5BMuvaNEtFF0kDmMsm_-1">
          <mxGeometry x="510" y="380" width="40" height="40" as="geometry" />
        </mxCell>
        <mxCell id="p5BMuvaNEtFF0kDmMsm_-36" style="edgeStyle=orthogonalEdgeStyle;rounded=0;orthogonalLoop=1;jettySize=auto;html=1;" edge="1" parent="p5BMuvaNEtFF0kDmMsm_-1" source="p5BMuvaNEtFF0kDmMsm_-22" target="p5BMuvaNEtFF0kDmMsm_-33">
          <mxGeometry relative="1" as="geometry">
            <Array as="points">
              <mxPoint x="330" y="405" />
              <mxPoint x="330" y="200" />
            </Array>
          </mxGeometry>
        </mxCell>
        <mxCell id="p5BMuvaNEtFF0kDmMsm_-22" value="Security group" style="fillColor=none;strokeColor=#DD3522;verticalAlign=top;fontStyle=0;fontColor=#DD3522;whiteSpace=wrap;html=1;spacingBottom=1;spacingLeft=3;spacingRight=-1;spacingTop=-20;" vertex="1" parent="p5BMuvaNEtFF0kDmMsm_-1">
          <mxGeometry x="140" y="370" width="90" height="70" as="geometry" />
        </mxCell>
        <mxCell id="p5BMuvaNEtFF0kDmMsm_-27" style="edgeStyle=orthogonalEdgeStyle;rounded=0;orthogonalLoop=1;jettySize=auto;html=1;" edge="1" parent="p5BMuvaNEtFF0kDmMsm_-1" source="p5BMuvaNEtFF0kDmMsm_-26">
          <mxGeometry relative="1" as="geometry">
            <mxPoint x="367" y="330" as="targetPoint" />
          </mxGeometry>
        </mxCell>
        <mxCell id="p5BMuvaNEtFF0kDmMsm_-26" value="" style="outlineConnect=0;dashed=0;verticalLabelPosition=bottom;verticalAlign=top;align=center;html=1;shape=mxgraph.aws3.application_load_balancer;fillColor=#F58534;gradientColor=none;" vertex="1" parent="p5BMuvaNEtFF0kDmMsm_-1">
          <mxGeometry x="338.25" y="240" width="57.5" height="50" as="geometry" />
        </mxCell>
        <mxCell id="p5BMuvaNEtFF0kDmMsm_-32" style="edgeStyle=orthogonalEdgeStyle;rounded=0;orthogonalLoop=1;jettySize=auto;html=1;" edge="1" parent="p5BMuvaNEtFF0kDmMsm_-1" source="p5BMuvaNEtFF0kDmMsm_-30" target="p5BMuvaNEtFF0kDmMsm_-26">
          <mxGeometry relative="1" as="geometry" />
        </mxCell>
        <mxCell id="p5BMuvaNEtFF0kDmMsm_-38" style="edgeStyle=orthogonalEdgeStyle;rounded=0;orthogonalLoop=1;jettySize=auto;html=1;startArrow=classic;startFill=1;" edge="1" parent="p5BMuvaNEtFF0kDmMsm_-1" source="p5BMuvaNEtFF0kDmMsm_-30" target="p5BMuvaNEtFF0kDmMsm_-24">
          <mxGeometry relative="1" as="geometry">
            <Array as="points">
              <mxPoint x="367" y="160" />
              <mxPoint x="164" y="160" />
            </Array>
          </mxGeometry>
        </mxCell>
        <mxCell id="p5BMuvaNEtFF0kDmMsm_-30" value="" style="sketch=0;outlineConnect=0;fontColor=#232F3E;gradientColor=none;fillColor=#4D27AA;strokeColor=none;dashed=0;verticalLabelPosition=bottom;verticalAlign=top;align=center;html=1;fontSize=12;fontStyle=0;aspect=fixed;pointerEvents=1;shape=mxgraph.aws4.internet_gateway;" vertex="1" parent="p5BMuvaNEtFF0kDmMsm_-1">
          <mxGeometry x="337" y="-30" width="60" height="60" as="geometry" />
        </mxCell>
        <mxCell id="p5BMuvaNEtFF0kDmMsm_-37" style="edgeStyle=orthogonalEdgeStyle;rounded=0;orthogonalLoop=1;jettySize=auto;html=1;" edge="1" parent="p5BMuvaNEtFF0kDmMsm_-1" source="p5BMuvaNEtFF0kDmMsm_-33" target="p5BMuvaNEtFF0kDmMsm_-30">
          <mxGeometry relative="1" as="geometry">
            <Array as="points">
              <mxPoint x="380" y="180" />
            </Array>
          </mxGeometry>
        </mxCell>
        <mxCell id="p5BMuvaNEtFF0kDmMsm_-33" value="NAT gateway" style="sketch=0;outlineConnect=0;fontColor=#232F3E;gradientColor=none;fillColor=#4D27AA;strokeColor=none;dashed=0;verticalLabelPosition=bottom;verticalAlign=top;align=center;html=1;fontSize=12;fontStyle=0;aspect=fixed;pointerEvents=1;shape=mxgraph.aws4.nat_gateway;" vertex="1" parent="p5BMuvaNEtFF0kDmMsm_-1">
          <mxGeometry x="506" y="170" width="48" height="48" as="geometry" />
        </mxCell>
        <mxCell id="p5BMuvaNEtFF0kDmMsm_-39" value="Security group" style="fillColor=none;strokeColor=#DD3522;verticalAlign=top;fontStyle=0;fontColor=#DD3522;whiteSpace=wrap;html=1;spacingBottom=1;spacingLeft=3;spacingRight=-1;spacingTop=-20;" vertex="1" parent="p5BMuvaNEtFF0kDmMsm_-1">
          <mxGeometry x="120" y="159" width="90" height="81" as="geometry" />
        </mxCell>
        <mxCell id="p5BMuvaNEtFF0kDmMsm_-40" value="Security group" style="fillColor=none;strokeColor=#DD3522;verticalAlign=top;fontStyle=0;fontColor=#DD3522;whiteSpace=wrap;html=1;spacingBottom=1;spacingLeft=3;spacingRight=-1;spacingTop=-20;" vertex="1" parent="p5BMuvaNEtFF0kDmMsm_-1">
          <mxGeometry x="340" y="230" width="60" height="60" as="geometry" />
        </mxCell>
        <mxCell id="p5BMuvaNEtFF0kDmMsm_-31" value="" style="edgeStyle=orthogonalEdgeStyle;rounded=0;orthogonalLoop=1;jettySize=auto;html=1;" edge="1" parent="1" source="p5BMuvaNEtFF0kDmMsm_-28" target="p5BMuvaNEtFF0kDmMsm_-30">
          <mxGeometry relative="1" as="geometry" />
        </mxCell>
        <mxCell id="p5BMuvaNEtFF0kDmMsm_-28" value="Internet" style="image;aspect=fixed;perimeter=ellipsePerimeter;html=1;align=center;shadow=0;dashed=0;spacingTop=3;image=img/lib/active_directory/internet_cloud.svg;" vertex="1" parent="1">
          <mxGeometry x="612" y="70" width="50" height="31.5" as="geometry" />
        </mxCell>
        <mxCell id="p5BMuvaNEtFF0kDmMsm_-41" value="S3 Bucket" style="sketch=0;points=[[0,0,0],[0.25,0,0],[0.5,0,0],[0.75,0,0],[1,0,0],[0,1,0],[0.25,1,0],[0.5,1,0],[0.75,1,0],[1,1,0],[0,0.25,0],[0,0.5,0],[0,0.75,0],[1,0.25,0],[1,0.5,0],[1,0.75,0]];outlineConnect=0;fontColor=#232F3E;gradientColor=#60A337;gradientDirection=north;fillColor=#277116;strokeColor=#ffffff;dashed=0;verticalLabelPosition=bottom;verticalAlign=top;align=center;html=1;fontSize=12;fontStyle=0;aspect=fixed;shape=mxgraph.aws4.resourceIcon;resIcon=mxgraph.aws4.s3;" vertex="1" parent="1">
          <mxGeometry x="1090" y="670" width="78" height="78" as="geometry" />
        </mxCell>
        <mxCell id="p5BMuvaNEtFF0kDmMsm_-44" style="edgeStyle=orthogonalEdgeStyle;rounded=0;orthogonalLoop=1;jettySize=auto;html=1;" edge="1" parent="1" source="p5BMuvaNEtFF0kDmMsm_-23" target="p5BMuvaNEtFF0kDmMsm_-41">
          <mxGeometry relative="1" as="geometry">
            <Array as="points">
              <mxPoint x="800" y="690" />
            </Array>
          </mxGeometry>
        </mxCell>
        <mxCell id="p5BMuvaNEtFF0kDmMsm_-45" style="edgeStyle=orthogonalEdgeStyle;rounded=0;orthogonalLoop=1;jettySize=auto;html=1;entryX=0;entryY=0.5;entryDx=0;entryDy=0;entryPerimeter=0;" edge="1" parent="1" source="p5BMuvaNEtFF0kDmMsm_-22" target="p5BMuvaNEtFF0kDmMsm_-41">
          <mxGeometry relative="1" as="geometry">
            <Array as="points">
              <mxPoint x="455" y="710" />
              <mxPoint x="790" y="710" />
              <mxPoint x="790" y="709" />
            </Array>
          </mxGeometry>
        </mxCell>
      </root>
    </mxGraphModel>
  </diagram>
</mxfile>
